<svg width="185" height="40" viewBox="0 0 185 40" fill="none" xmlns="http://www.w3.org/2000/svg">
<path d="M36.5083 8.70613C32.9048 3.44887 26.8551 0 20 0C8.95431 0 0 8.9543 0 20C0 21.607 0.189533 23.1697 0.547447 24.667L10.7322 14.4822C11.7085 13.5059 13.2915 13.5059 14.2678 14.4822L22.5 22.7145L36.5083 8.70613Z" fill="#EF2A82"/>
<path d="M38.8854 13.4001L24.2678 28.0178C23.2915 28.9941 21.7085 28.9941 20.7322 28.0178L12.5 19.7855L2.53418 29.7514C5.9555 35.8662 12.495 40 20 40C31.0457 40 40 31.0457 40 20C40 17.6874 39.6075 15.4664 38.8854 13.4001Z" fill="#EF2A82"/>
<path d="M62.8084 25.0561H57.6022L56.6931 28.0001H52.6342L58.414 12.241H61.9858L67.8089 28.0001H63.7284L62.8084 25.0561ZM58.5114 22.1229H61.8992L60.1999 16.657L58.5114 22.1229Z" fill="white"/>
<path d="M82.1284 28.0001H78.351L72.7661 18.1939V28.0001H68.967V12.241H72.7661L78.3402 22.0471V12.241H82.1284V28.0001Z" fill="white"/>
<path d="M93.6772 25.0561H88.471L87.5619 28.0001H83.503L89.2828 12.241H92.8546L98.6777 28.0001H94.5972L93.6772 25.0561ZM89.3802 22.1229H92.768L91.0687 16.657L89.3802 22.1229Z" fill="white"/>
<path d="M103.635 25.0777H110.248V28.0001H99.8358V12.241H103.635V25.0777Z" fill="white"/>
<path d="M114.588 19.0815L117.489 12.241H121.591L116.515 22.3394V28.0001H112.662V22.3394L107.596 12.241H111.677L114.588 19.0815Z" fill="white"/>
<path d="M135.305 15.1742H130.575V28.0001H126.776V15.1742H122.132V12.241H135.305V15.1742Z" fill="white"/>
<path d="M140.965 28.0001H137.177V12.241H140.965V28.0001Z" fill="white"/>
<path d="M156.356 22.6641C156.306 23.7609 156.01 24.7314 155.469 25.5756C154.928 26.4126 154.166 27.062 153.185 27.5238C152.211 27.9857 151.096 28.2166 149.841 28.2166C147.77 28.2166 146.139 27.5419 144.948 26.1925C143.758 24.8432 143.163 22.9383 143.163 20.4777V19.6984C143.163 18.1542 143.43 16.8049 143.963 15.6504C144.505 14.4887 145.28 13.5939 146.291 12.9661C147.301 12.3312 148.47 12.0137 149.797 12.0137C151.71 12.0137 153.246 12.5188 154.408 13.529C155.57 14.532 156.23 15.9174 156.389 17.6852H152.601C152.572 16.7255 152.33 16.0364 151.876 15.6179C151.421 15.1994 150.728 14.9902 149.797 14.9902C148.852 14.9902 148.159 15.3437 147.719 16.0509C147.279 16.758 147.048 17.8873 147.027 19.4386V20.5535C147.027 22.2347 147.236 23.4361 147.654 24.1577C148.08 24.8793 148.809 25.2401 149.841 25.2401C150.714 25.2401 151.381 25.0344 151.843 24.6231C152.305 24.2118 152.55 23.5588 152.579 22.6641H156.356Z" fill="white"/>
<path d="M166.282 23.8114C166.282 23.2558 166.083 22.8228 165.686 22.5125C165.297 22.2023 164.608 21.8812 163.619 21.5492C162.631 21.2173 161.822 20.8962 161.195 20.5859C159.153 19.583 158.132 18.2048 158.132 16.4513C158.132 15.5782 158.384 14.8098 158.889 14.1459C159.401 13.4749 160.123 12.9553 161.054 12.5873C161.985 12.2121 163.031 12.0245 164.193 12.0245C165.326 12.0245 166.339 12.2265 167.234 12.6306C168.136 13.0347 168.836 13.612 169.334 14.3624C169.832 15.1056 170.081 15.9571 170.081 16.9167H166.292C166.292 16.2745 166.094 15.7767 165.697 15.4231C165.308 15.0695 164.777 14.8927 164.106 14.8927C163.428 14.8927 162.89 15.0443 162.493 15.3473C162.104 15.6432 161.909 16.022 161.909 16.4838C161.909 16.8879 162.125 17.2559 162.558 17.5878C162.991 17.9125 163.753 18.2517 164.842 18.6052C165.932 18.9516 166.826 19.3268 167.526 19.7309C169.229 20.7122 170.081 22.0652 170.081 23.7897C170.081 25.1679 169.561 26.2503 168.522 27.0368C167.483 27.8233 166.058 28.2166 164.247 28.2166C162.97 28.2166 161.812 27.9893 160.772 27.5347C159.741 27.0729 158.961 26.4451 158.435 25.6514C157.915 24.8504 157.655 23.9304 157.655 22.8914H161.465C161.465 23.7356 161.682 24.3598 162.115 24.7638C162.555 25.1607 163.266 25.3591 164.247 25.3591C164.875 25.3591 165.369 25.2256 165.73 24.9587C166.098 24.6845 166.282 24.302 166.282 23.8114Z" fill="white"/>
</svg>
